<svg width="2166" height="651" viewBox="0 0 2166 651" fill="none" xmlns="http://www.w3.org/2000/svg">
<path d="M478.79 317.935L0.62998 594L0.629992 317.934L478.79 317.935Z" fill="#028DDC"/>
<path d="M478.16 318.065L-2.47034e-05 42L-1.26362e-05 318.066L478.16 318.065Z" fill="url(#paint0_linear)"/>
<path d="M0.903381 593.963C65.3443 565.391 194.226 461.424 194.226 317.53H0.903381V593.963Z" fill="#8D00F4" stroke="url(#paint1_linear)"/>
<path d="M0.903381 42C65.3443 70.5726 194.226 174.54 194.226 318.433H0.903381V42Z" fill="#AB02CF" stroke="url(#paint2_linear)"/>
<rect x="372.097" y="101" width="14.8065" height="83.6129" rx="7.40323" fill="#8D00F4"/>
<rect x="372.097" y="101" width="14.8065" height="83.6129" rx="7.40323" fill="#8D00F4"/>
<rect x="372.097" y="101" width="14.8065" height="83.6129" rx="7.40323" fill="#7BA717"/>
<rect x="420" y="134.097" width="16.5484" height="81" rx="8.27419" transform="rotate(90 420 134.097)" fill="#8D00F4"/>
<rect x="420" y="134.097" width="16.5484" height="81" rx="8.27419" transform="rotate(90 420 134.097)" fill="#8D00F4"/>
<rect x="420" y="134.097" width="16.5484" height="81" rx="8.27419" transform="rotate(90 420 134.097)" fill="#7BA717"/>
<rect x="438.708" y="42" width="12.3958" height="70" rx="6.19792" fill="#8D00F4"/>
<rect x="438.708" y="42" width="12.3958" height="70" rx="6.19792" fill="#8D00F4"/>
<rect x="438.708" y="42" width="12.3958" height="70" rx="6.19792" fill="#7BA717"/>
<rect x="478.812" y="69.7083" width="13.8542" height="67.8125" rx="6.92708" transform="rotate(90 478.812 69.7083)" fill="#8D00F4"/>
<rect x="478.812" y="69.7083" width="13.8542" height="67.8125" rx="6.92708" transform="rotate(90 478.812 69.7083)" fill="#8D00F4"/>
<rect x="478.812" y="69.7083" width="13.8542" height="67.8125" rx="6.92708" transform="rotate(90 478.812 69.7083)" fill="#7BA717"/>
<path d="M688.179 125.387C741.531 125.387 782.4 134.963 810.786 154.115C839.172 172.925 853.365 202.337 853.365 242.351C853.365 267.317 847.551 287.666 835.923 303.398C824.637 318.788 808.221 330.929 786.675 339.821C793.857 348.713 801.381 358.973 809.247 370.601C817.113 381.887 824.808 393.857 832.332 406.511C840.198 418.823 847.722 431.819 854.904 445.499C862.086 458.837 868.755 472.004 874.911 485H785.136C778.638 473.372 771.969 461.573 765.129 449.603C758.631 437.633 751.791 426.005 744.609 414.719C737.769 403.433 730.929 392.831 724.089 382.913C717.249 372.653 710.409 363.419 703.569 355.211H664.068V485H584.04V134.621C601.482 131.201 619.437 128.807 637.905 127.439C656.715 126.071 673.473 125.387 688.179 125.387ZM692.796 193.616C686.982 193.616 681.681 193.787 676.893 194.129C672.447 194.471 668.172 194.813 664.068 195.155V291.599H686.64C716.736 291.599 738.282 287.837 751.278 280.313C764.274 272.789 770.772 259.964 770.772 241.838C770.772 224.396 764.103 212.084 750.765 204.902C737.769 197.378 718.446 193.616 692.796 193.616ZM895.227 352.133C895.227 328.193 898.818 307.331 906 289.547C913.524 271.421 923.271 256.373 935.241 244.403C947.211 232.433 960.891 223.37 976.281 217.214C992.013 211.058 1008.09 207.98 1024.5 207.98C1062.81 207.98 1093.07 219.779 1115.3 243.377C1137.53 266.633 1148.65 301.004 1148.65 346.49C1148.65 350.936 1148.48 355.895 1148.14 361.367C1147.79 366.497 1147.45 371.114 1147.11 375.218H973.716C975.426 390.95 982.779 403.433 995.775 412.667C1008.77 421.901 1026.21 426.518 1048.1 426.518C1062.12 426.518 1075.8 425.321 1089.14 422.927C1102.82 420.191 1113.94 416.942 1122.49 413.18L1132.75 475.253C1128.64 477.305 1123.17 479.357 1116.33 481.409C1109.49 483.461 1101.79 485.171 1093.24 486.539C1085.04 488.249 1076.14 489.617 1066.57 490.643C1056.99 491.669 1047.42 492.182 1037.84 492.182C1013.56 492.182 992.355 488.591 974.229 481.409C956.445 474.227 941.568 464.48 929.598 452.168C917.97 439.514 909.249 424.637 903.435 407.537C897.963 390.437 895.227 371.969 895.227 352.133ZM1074.78 322.892C1074.43 316.394 1073.24 310.067 1071.19 303.911C1069.48 297.755 1066.57 292.283 1062.46 287.495C1058.7 282.707 1053.74 278.774 1047.59 275.696C1041.77 272.618 1034.42 271.079 1025.53 271.079C1016.98 271.079 1009.63 272.618 1003.47 275.696C997.314 278.432 992.184 282.194 988.08 286.982C983.976 291.77 980.727 297.413 978.333 303.911C976.281 310.067 974.742 316.394 973.716 322.892H1074.78ZM1310.75 431.648C1318.27 431.648 1325.45 431.477 1332.29 431.135C1339.13 430.793 1344.61 430.28 1348.71 429.596V371.627C1345.63 370.943 1341.02 370.259 1334.86 369.575C1328.7 368.891 1323.06 368.549 1317.93 368.549C1310.75 368.549 1303.91 369.062 1297.41 370.088C1291.25 370.772 1285.78 372.311 1280.99 374.705C1276.21 377.099 1272.44 380.348 1269.71 384.452C1266.97 388.556 1265.6 393.686 1265.6 399.842C1265.6 411.812 1269.54 420.191 1277.4 424.979C1285.61 429.425 1296.73 431.648 1310.75 431.648ZM1304.59 207.98C1327.16 207.98 1345.97 210.545 1361.02 215.675C1376.07 220.805 1388.04 228.158 1396.93 237.734C1406.17 247.31 1412.66 258.938 1416.43 272.618C1420.19 286.298 1422.07 301.517 1422.07 318.275V477.305C1411.13 479.699 1395.91 482.435 1376.41 485.513C1356.92 488.933 1333.32 490.643 1305.62 490.643C1288.18 490.643 1272.27 489.104 1257.91 486.026C1243.89 482.948 1231.75 477.989 1221.49 471.149C1211.23 463.967 1203.36 454.733 1197.89 443.447C1192.42 432.161 1189.68 418.31 1189.68 401.894C1189.68 386.162 1192.76 372.824 1198.91 361.88C1205.41 350.936 1213.96 342.215 1224.56 335.717C1235.17 329.219 1247.31 324.602 1260.99 321.866C1274.67 318.788 1288.86 317.249 1303.57 317.249C1313.48 317.249 1322.21 317.762 1329.73 318.788C1337.6 319.472 1343.92 320.498 1348.71 321.866V314.684C1348.71 301.688 1344.78 291.257 1336.91 283.391C1329.05 275.525 1315.37 271.592 1295.87 271.592C1282.88 271.592 1270.05 272.618 1257.4 274.67C1244.74 276.38 1233.8 278.945 1224.56 282.365L1214.82 220.805C1219.26 219.437 1224.74 218.069 1231.23 216.701C1238.07 214.991 1245.43 213.623 1253.29 212.597C1261.16 211.229 1269.37 210.203 1277.92 209.519C1286.81 208.493 1295.7 207.98 1304.59 207.98ZM1478.36 350.081C1478.36 330.587 1481.44 312.29 1487.6 295.19C1494.1 277.748 1503.33 262.7 1515.3 250.046C1527.27 237.05 1541.8 226.79 1558.9 219.266C1576 211.742 1595.5 207.98 1617.39 207.98C1631.75 207.98 1644.92 209.348 1656.89 212.084C1668.86 214.478 1680.49 218.069 1691.77 222.857L1675.87 283.904C1668.69 281.168 1660.82 278.774 1652.27 276.722C1643.72 274.67 1634.14 273.644 1623.54 273.644C1600.97 273.644 1584.04 280.655 1572.76 294.677C1561.81 308.699 1556.34 327.167 1556.34 350.081C1556.34 374.363 1561.47 393.173 1571.73 406.511C1582.33 419.849 1600.63 426.518 1626.62 426.518C1635.85 426.518 1645.77 425.663 1656.37 423.953C1666.98 422.243 1676.72 419.507 1685.62 415.745L1696.39 478.331C1687.5 482.093 1676.38 485.342 1663.04 488.078C1649.71 490.814 1635 492.182 1618.93 492.182C1594.3 492.182 1573.1 488.591 1555.31 481.409C1537.53 473.885 1522.82 463.796 1511.2 451.142C1499.91 438.488 1491.53 423.611 1486.06 406.511C1480.93 389.069 1478.36 370.259 1478.36 350.081ZM1747.69 485V99.224L1824.13 86.912V216.188C1829.26 214.478 1835.75 212.939 1843.62 211.571C1851.83 209.861 1859.69 209.006 1867.22 209.006C1889.11 209.006 1907.23 212.084 1921.6 218.24C1936.3 224.054 1947.93 232.433 1956.48 243.377C1965.37 254.321 1971.53 267.317 1974.95 282.365C1978.71 297.413 1980.59 314.171 1980.59 332.639V485H1904.15V341.873C1904.15 317.249 1900.9 299.807 1894.41 289.547C1888.25 279.287 1876.62 274.157 1859.52 274.157C1852.68 274.157 1846.18 274.841 1840.03 276.209C1834.21 277.235 1828.91 278.432 1824.13 279.8V485H1747.69Z" fill="black"/>
<defs>
<linearGradient id="paint0_linear" x1="478.16" y1="180.033" x2="-6.03361e-06" y2="180.033" gradientUnits="userSpaceOnUse">
<stop stop-color="#028DDC"/>
<stop offset="1" stop-color="#00C0EF"/>
</linearGradient>
<linearGradient id="paint1_linear" x1="97.5647" y1="28.1313" x2="97.5647" y2="593.964" gradientUnits="userSpaceOnUse">
<stop stop-color="white"/>
<stop offset="1" stop-color="white" stop-opacity="0"/>
</linearGradient>
<linearGradient id="paint2_linear" x1="97.5647" y1="607.832" x2="97.5647" y2="41.9996" gradientUnits="userSpaceOnUse">
<stop stop-color="white"/>
<stop offset="1" stop-color="white" stop-opacity="0"/>
</linearGradient>
</defs>
</svg>
